<?xml version="1.0" encoding="utf-8"?>
<!-- Generator: Adobe Illustrator 24.0.1, SVG Export Plug-In . SVG Version: 6.00 Build 0)  -->
<svg version="1.1" id="Camada_1" xmlns="http://www.w3.org/2000/svg" xmlns:xlink="http://www.w3.org/1999/xlink" x="0px" y="0px"
	 viewBox="0 0 664.86 147.98" style="enable-background:new 0 0 664.86 147.98;" xml:space="preserve">
<style type="text/css">
	.st0{fill:#FAB811;}
	.st1{fill:#B9B9B9;}
</style>
<polyline class="st0" points="69.55,91.88 54.81,81.58 51.38,79.26 51.38,79.17 44.95,74.67 41.67,77.21 41.67,81.52 79.44,107.94 
	79.44,98.44 "/>
<polygon class="st0" points="75.77,50.14 47.58,72.02 54.06,76.39 75.77,59.95 "/>
<polyline class="st0" points="596.23,68.07 610.97,78.38 614.4,80.7 614.4,80.78 620.83,85.28 624.11,82.74 624.11,78.43 
	586.34,52.01 586.34,61.01 "/>
<polygon class="st0" points="591.13,109.18 619.32,87.3 612.84,82.93 591.13,99.37 "/>
<path class="st1" d="M138,133.91c-8.41,0-15.84-1.45-22.28-4.34c-6.45-2.89-11.53-7.04-15.24-12.45c-3.72-5.4-5.63-11.98-5.73-19.74
	h22.12c0.22,5.35,2.16,9.86,5.82,13.52c3.66,3.66,8.71,5.49,15.15,5.49c5.57,0,10-1.34,13.27-4.01c3.28-2.68,4.92-6.25,4.92-10.73
	c0-4.69-1.45-8.36-4.34-10.98c-2.9-2.62-6.75-4.75-11.55-6.39c-4.81-1.64-9.94-3.38-15.4-5.24c-8.85-3.06-15.59-6.99-20.23-11.79
	c-4.64-4.8-6.96-11.19-6.96-19.17c-0.11-6.77,1.5-12.59,4.83-17.45c3.33-4.86,7.89-8.63,13.68-11.3c5.79-2.68,12.45-4.01,19.99-4.01
	c7.64,0,14.39,1.37,20.23,4.1c5.84,2.73,10.43,6.55,13.76,11.47c3.33,4.91,5.1,10.76,5.32,17.53h-22.44
	c-0.11-4.04-1.67-7.62-4.67-10.73c-3.01-3.11-7.18-4.67-12.53-4.67c-4.59-0.11-8.44,1.01-11.55,3.36
	c-3.11,2.35-4.67,5.76-4.67,10.24c0,3.83,1.2,6.86,3.6,9.09c2.4,2.24,5.68,4.12,9.83,5.65c4.15,1.53,8.9,3.17,14.25,4.91
	c5.68,1.97,10.86,4.26,15.56,6.88c4.69,2.62,8.46,6.09,11.3,10.4c2.84,4.32,4.26,9.86,4.26,16.63c0,6.01-1.53,11.58-4.59,16.71
	c-3.06,5.13-7.59,9.26-13.6,12.37C154.11,132.36,146.74,133.91,138,133.91z"/>
<path class="st1" d="M230.05,133.91c-7.86,0-14.94-1.8-21.22-5.41c-6.28-3.6-11.25-8.6-14.91-14.99c-3.66-6.39-5.49-13.79-5.49-22.2
	s1.86-15.81,5.57-22.2c3.71-6.39,8.71-11.39,14.99-14.99c6.28-3.6,13.35-5.41,21.22-5.41c7.75,0,14.77,1.8,21.05,5.41
	c6.28,3.61,11.25,8.6,14.91,14.99c3.66,6.39,5.49,13.79,5.49,22.2s-1.83,15.81-5.49,22.2c-3.66,6.39-8.66,11.39-14.99,14.99
	C244.84,132.11,237.8,133.91,230.05,133.91z M230.05,115.73c5.46,0,10.21-2.05,14.25-6.14c4.04-4.09,6.06-10.18,6.06-18.27
	c0-8.08-2.02-14.17-6.06-18.27c-4.04-4.09-8.74-6.14-14.09-6.14c-5.57,0-10.35,2.05-14.34,6.14c-3.99,4.1-5.98,10.19-5.98,18.27
	c0,8.08,1.99,14.17,5.98,18.27C219.86,113.68,224.58,115.73,230.05,115.73z"/>
<path class="st1" d="M289,131.95V68.22h-11.14V50.69H289v-9.5c0-9.83,2.48-16.82,7.46-20.97c4.97-4.15,11.71-6.22,20.23-6.22h9.01
	v17.86h-5.73c-3.61,0-6.17,0.71-7.7,2.13c-1.53,1.42-2.3,3.83-2.3,7.21v9.5h17.53v17.53h-17.53v63.73H289z"/>
<path class="st1" d="M380.25,131.95c-8.52,0-15.35-2.25-20.48-6.77c-5.14-4.51-7.7-12.53-7.7-24.04V62.67h-13.92V43.62h13.92
	l2.46-23.69h18.51v23.69h21.95v19.05h-21.95v38.64c0,4.27,0.84,7.21,2.54,8.82c1.69,1.6,4.61,2.4,8.76,2.4h10.16v19.41H380.25z"/>
<path class="st1" d="M448.39,133.91c-8.41,0-15.84-1.45-22.28-4.34c-6.45-2.89-11.53-7.04-15.24-12.45
	c-3.72-5.4-5.63-11.98-5.73-19.74h22.12c0.22,5.35,2.16,9.86,5.82,13.52c3.66,3.66,8.71,5.49,15.15,5.49c5.57,0,10-1.34,13.27-4.01
	c3.28-2.68,4.92-6.25,4.92-10.73c0-4.69-1.45-8.36-4.34-10.98c-2.9-2.62-6.75-4.75-11.55-6.39c-4.81-1.64-9.94-3.38-15.4-5.24
	c-8.85-3.06-15.59-6.99-20.23-11.79c-4.64-4.8-6.96-11.19-6.96-19.17c-0.11-6.77,1.5-12.59,4.83-17.45
	c3.33-4.86,7.89-8.63,13.68-11.3s12.45-4.01,19.99-4.01c7.64,0,14.39,1.37,20.23,4.1c5.84,2.73,10.43,6.55,13.76,11.47
	c3.33,4.91,5.1,10.76,5.32,17.53H463.3c-0.11-4.04-1.67-7.62-4.67-10.73c-3.01-3.11-7.18-4.67-12.53-4.67
	c-4.59-0.11-8.44,1.01-11.55,3.36c-3.11,2.35-4.67,5.76-4.67,10.24c0,3.83,1.2,6.86,3.6,9.09c2.4,2.24,5.68,4.12,9.83,5.65
	c4.15,1.53,8.9,3.17,14.25,4.91c5.68,1.97,10.86,4.26,15.56,6.88c4.69,2.62,8.46,6.09,11.3,10.4c2.84,4.32,4.26,9.86,4.26,16.63
	c0,6.01-1.53,11.58-4.59,16.71c-3.06,5.13-7.59,9.26-13.6,12.37C464.5,132.36,457.13,133.91,448.39,133.91z"/>
<polygon class="st1" points="521.31,19.93 500.41,19.93 529.27,89.18 539.57,65.78 "/>
<polyline class="st0" points="537.97,92.79 520.68,130.83 536.77,130.83 541.13,130.83 559.87,88.23 570.16,64.83 588.49,23.18 
	568.04,23.18 566.69,26.43 546.24,75.65 "/>
</svg>
